<?xml version="1.0" standalone="no"?>
<!DOCTYPE svg PUBLIC "-//W3C//DTD SVG 20010904//EN"
 "http://www.w3.org/TR/2001/REC-SVG-20010904/DTD/svg10.dtd">
<svg version="1.0" xmlns="http://www.w3.org/2000/svg"
 width="500.000000pt" height="500.000000pt" viewBox="0 0 500.000000 500.000000"
 preserveAspectRatio="xMidYMid meet">
<metadata>
Created by potrace 1.14, written by Peter Selinger 2001-2017
</metadata>
<g transform="translate(0.000000,500.000000) scale(0.100000,-0.100000)"
fill="#000000" stroke="none">
<path d="M1202 4238 c-99 -37 -173 -133 -188 -241 -6 -45 -7 -46 -55 -57 -133
-32 -229 -156 -229 -296 0 -113 85 -232 193 -273 32 -11 63 -21 70 -21 7 0 53
-42 104 -93 l92 -93 -20 -55 c-12 -30 -30 -94 -41 -144 -127 -571 142 -1210
671 -1595 219 -160 496 -273 746 -303 17 -2 53 -14 80 -27 136 -64 350 -25
584 106 74 40 77 41 96 24 11 -10 38 -27 61 -38 41 -21 41 -21 36 -70 -10
-114 60 -237 165 -288 75 -37 182 -40 254 -7 84 38 159 132 173 217 6 35 0 30
68 50 125 36 210 145 214 275 6 169 -117 301 -285 307 -65 3 -65 3 -98 48 -18
25 -37 46 -42 46 -22 0 -16 32 18 91 37 65 100 201 106 229 2 8 11 42 19 75
22 79 19 206 -5 271 -18 48 -49 89 -88 116 -13 9 -27 43 -41 98 -116 455 -428
853 -850 1084 -123 67 -343 146 -450 162 -19 3 -41 7 -48 9 -63 22 -361 22
-457 1 -93 -20 -161 -38 -205 -55 l-53 -20 -92 92 c-82 82 -93 97 -99 137 -15
99 -76 184 -167 231 -60 30 -168 34 -237 7z"/>
</g>
</svg>
